<svg xmlns="http://www.w3.org/2000/svg" xmlns:xlink="http://www.w3.org/1999/xlink" width="500" zoomAndPan="magnify" viewBox="0 0 375 374.999991" height="500" preserveAspectRatio="xMidYMid meet" version="1.0"><defs><g/><clipPath id="773d367372"><path d="M 50.769531 0 L 324.230469 0 L 324.230469 273.460938 L 50.769531 273.460938 Z M 50.769531 0 " clip-rule="nonzero"/></clipPath><clipPath id="58b1d8580a"><path d="M 187.5 0 C 111.984375 0 50.769531 61.214844 50.769531 136.730469 C 50.769531 212.246094 111.984375 273.460938 187.5 273.460938 C 263.015625 273.460938 324.230469 212.246094 324.230469 136.730469 C 324.230469 61.214844 263.015625 0 187.5 0 Z M 187.5 0 " clip-rule="nonzero"/></clipPath><clipPath id="e9905358dc"><path d="M 50.769531 0 L 324.214844 0 L 324.214844 273.445312 L 50.769531 273.445312 Z M 50.769531 0 " clip-rule="nonzero"/></clipPath><clipPath id="b0f406b302"><path d="M 187.492188 0 C 111.984375 0 50.769531 61.214844 50.769531 136.722656 C 50.769531 212.234375 111.984375 273.445312 187.492188 273.445312 C 263.003906 273.445312 324.214844 212.234375 324.214844 136.722656 C 324.214844 61.214844 263.003906 0 187.492188 0 Z M 187.492188 0 " clip-rule="nonzero"/></clipPath><clipPath id="3254194b54"><path d="M 207 52.40625 L 257 52.40625 L 257 116 L 207 116 Z M 207 52.40625 " clip-rule="nonzero"/></clipPath><clipPath id="27ee8c7025"><path d="M 73.707031 87 L 137 87 L 137 176 L 73.707031 176 Z M 73.707031 87 " clip-rule="nonzero"/></clipPath><clipPath id="20f4ca7f3f"><path d="M 118 52.40625 L 168 52.40625 L 168 116 L 118 116 Z M 118 52.40625 " clip-rule="nonzero"/></clipPath></defs><g clip-path="url(#773d367372)"><g clip-path="url(#58b1d8580a)"><path fill="#dffff0" d="M 50.769531 0 L 324.230469 0 L 324.230469 273.460938 L 50.769531 273.460938 Z M 50.769531 0 " fill-opacity="1" fill-rule="nonzero"/></g></g><g clip-path="url(#e9905358dc)"><g clip-path="url(#b0f406b302)"><path stroke-linecap="butt" transform="matrix(1.970347, 0, 0, 1.970347, 50.769275, 0.000000000000028)" fill="none" stroke-linejoin="miter" d="M 69.390271 -0.000000000000014211 C 31.068183 -0.000000000000014211 0.000130172 31.068052 0.000130172 69.390141 C 0.000130172 107.714212 31.068183 138.780282 69.390271 138.780282 C 107.714343 138.780282 138.780412 107.714212 138.780412 69.390141 C 138.780412 31.068052 107.714343 -0.000000000000014211 69.390271 -0.000000000000014211 Z M 69.390271 -0.000000000000014211 " stroke="#569da6" stroke-width="3.045149" stroke-opacity="1" stroke-miterlimit="4"/></g></g><g fill="#ffffff" fill-opacity="1"><g transform="translate(99.477279, 352.800703)"><g><path d="M 17.65625 -36.625 L 8.90625 -36.625 L 8.90625 -39.28125 L 3.890625 -38.6875 L 3.890625 0 L 27.4375 0 L 27.4375 -25.453125 C 27.4375 -33.46875 24.34375 -36.625 17.65625 -36.625 Z M 8.90625 -4.484375 L 8.90625 -32.140625 L 16.328125 -32.140625 C 21.109375 -32.140625 22.4375 -29.9375 22.4375 -25 L 22.4375 -4.484375 Z M 8.90625 -4.484375 "/></g></g></g><g fill="#ffffff" fill-opacity="1"><g transform="translate(130.588741, 352.800703)"><g><path d="M 7.203125 -15.21875 L 12.203125 -15.21875 L 12.203125 -36.625 L 1.171875 -36.625 L 1.171875 -32.140625 L 7.203125 -32.140625 Z M 7.203125 -15.21875 "/></g></g></g><g fill="#ffffff" fill-opacity="1"><g transform="translate(146.622552, 352.800703)"><g><path d="M 2.0625 0 L 19.9375 0 C 20.59375 -6.46875 21.109375 -15.953125 21.109375 -22.140625 C 21.109375 -33.25 18.390625 -36.625 9.703125 -36.625 L 2.796875 -36.625 L 2.796875 -32.140625 L 8.828125 -32.140625 C 14.78125 -32.140625 16.109375 -29.9375 16.109375 -20.953125 C 16.109375 -16.03125 15.890625 -9.046875 15.59375 -4.484375 L 2.0625 -4.484375 Z M 2.0625 0 "/></g></g></g><g fill="#ffffff" fill-opacity="1"><g transform="translate(170.967471, 352.800703)"><g><path d="M 7.203125 -15.21875 L 12.203125 -15.21875 L 12.203125 -36.625 L 1.171875 -36.625 L 1.171875 -32.140625 L 7.203125 -32.140625 Z M 7.203125 -15.21875 "/></g></g></g><g fill="#ffffff" fill-opacity="1"><g transform="translate(187.001282, 352.800703)"><g><path d="M 6.546875 -36.625 L 2.796875 -36.625 L 2.796875 -32.140625 L 5.140625 -32.140625 C 9.1875 -32.140625 10.15625 -30.890625 10.078125 -25.59375 L 10 -4.484375 L 1.84375 -4.484375 L 1.84375 0 L 14.9375 0 L 15.078125 -25.671875 C 15.078125 -34.5 13.390625 -36.625 6.546875 -36.625 Z M 6.546875 -36.625 "/></g></g></g><g fill="#ffffff" fill-opacity="1"><g transform="translate(205.682867, 352.800703)"><g><path d="M 16.984375 -36.625 L 8.90625 -36.625 L 8.90625 -39.28125 L 3.890625 -38.6875 L 3.890625 0 L 8.90625 0 L 8.90625 -32.140625 L 15.671875 -32.140625 C 20.453125 -32.140625 21.765625 -29.9375 21.765625 -25 L 21.765625 0 L 26.765625 0 L 26.765625 -25.453125 C 26.765625 -33.46875 23.6875 -36.625 16.984375 -36.625 Z M 16.984375 -36.625 "/></g></g></g><g fill="#ffffff" fill-opacity="1"><g transform="translate(236.132385, 352.800703)"><g><path d="M 6.84375 0.59375 C 9.125 0.59375 10.890625 -1.25 10.890625 -3.453125 C 10.890625 -5.734375 9.125 -7.65625 6.84375 -7.65625 C 4.5625 -7.65625 2.796875 -5.734375 2.796875 -3.453125 C 2.796875 -1.25 4.5625 0.59375 6.84375 0.59375 Z M 6.84375 0.59375 "/></g></g></g><g fill="#ffffff" fill-opacity="1"><g transform="translate(249.747008, 352.800703)"><g><path d="M 14.640625 0 L 19.703125 0 L 19.703125 -10.8125 L 23.75 -10.8125 L 23.75 -15.21875 L 19.703125 -15.21875 L 19.703125 -42.875 L 14.9375 -42.875 L 1.625 -14.859375 L 1.625 -10.8125 L 14.640625 -10.8125 Z M 14.640625 -15.21875 L 6.109375 -15.21875 L 14.34375 -32.65625 L 14.703125 -32.65625 Z M 14.640625 -15.21875 "/></g></g></g><path fill="#569da6" d="M 193.253906 211.367188 L 270.40625 211.367188 C 267.496094 191.597656 258.03125 175.542969 245.605469 168.59375 C 252.136719 164.171875 256.429688 156.695312 256.429688 148.214844 C 256.429688 134.628906 245.417969 123.617188 231.828125 123.617188 C 218.242188 123.617188 207.230469 134.628906 207.230469 148.214844 C 207.230469 156.695312 211.523438 164.171875 218.050781 168.59375 C 205.628906 175.542969 196.164062 191.597656 193.253906 211.367188 " fill-opacity="1" fill-rule="nonzero"/><path fill="#569da6" d="M 238.0625 112.539062 C 238.0625 113.183594 238.175781 113.792969 238.234375 114.421875 C 254.167969 117.4375 266.269531 131.417969 266.269531 148.214844 C 266.269531 155.207031 264.15625 161.910156 260.34375 167.53125 C 262.8125 169.953125 265.09375 172.695312 267.183594 175.695312 L 301.238281 175.695312 C 298.332031 155.925781 288.863281 139.871094 276.441406 132.917969 C 282.972656 128.496094 287.265625 121.019531 287.265625 112.539062 C 287.265625 98.953125 276.25 87.9375 262.664062 87.9375 C 249.078125 87.9375 238.0625 98.953125 238.0625 112.539062 " fill-opacity="1" fill-rule="nonzero"/><g clip-path="url(#3254194b54)"><path fill="#569da6" d="M 221.90625 112.539062 C 221.90625 113.527344 221.792969 114.5 221.695312 115.46875 C 223.851562 114.800781 226.078125 114.355469 228.390625 114.121094 C 228.359375 113.589844 228.222656 113.078125 228.222656 112.539062 C 228.222656 95.734375 240.335938 81.753906 256.277344 78.742188 C 256.328125 78.160156 256.429688 77.59375 256.429688 76.996094 C 256.429688 63.410156 245.417969 52.398438 231.828125 52.398438 C 218.242188 52.398438 207.230469 63.410156 207.230469 76.996094 C 207.230469 80.199219 208.007812 83.171875 209.121094 85.980469 C 216.855469 92.300781 221.90625 101.792969 221.90625 112.539062 " fill-opacity="1" fill-rule="nonzero"/></g><path fill="#569da6" d="M 104.523438 211.367188 L 181.675781 211.367188 C 178.765625 191.597656 169.296875 175.542969 156.875 168.59375 C 163.40625 164.171875 167.699219 156.695312 167.699219 148.214844 C 167.699219 134.628906 156.683594 123.617188 143.101562 123.617188 C 129.511719 123.617188 118.5 134.628906 118.5 148.214844 C 118.5 156.695312 122.792969 164.171875 129.320312 168.59375 C 116.898438 175.542969 107.433594 191.597656 104.523438 211.367188 " fill-opacity="1" fill-rule="nonzero"/><path fill="#569da6" d="M 164.832031 121.71875 C 172.523438 128.042969 177.539062 137.503906 177.539062 148.214844 C 177.539062 155.207031 175.425781 161.910156 171.613281 167.53125 C 174.078125 169.953125 176.363281 172.695312 178.453125 175.695312 L 196.476562 175.695312 C 198.566406 172.695312 200.847656 169.953125 203.3125 167.53125 C 199.503906 161.910156 197.386719 155.207031 197.386719 148.214844 C 197.386719 137.503906 202.40625 128.042969 210.09375 121.71875 C 211.261719 118.859375 212.0625 115.816406 212.0625 112.539062 C 212.0625 98.953125 201.050781 87.9375 187.464844 87.9375 C 173.878906 87.9375 162.863281 98.953125 162.863281 112.539062 C 162.863281 115.816406 163.667969 118.859375 164.832031 121.71875 " fill-opacity="1" fill-rule="nonzero"/><g clip-path="url(#27ee8c7025)"><path fill="#569da6" d="M 73.6875 175.695312 L 107.742188 175.695312 C 109.835938 172.695312 112.117188 169.953125 114.582031 167.53125 C 110.773438 161.910156 108.65625 155.207031 108.65625 148.214844 C 108.65625 131.417969 120.761719 117.4375 136.695312 114.421875 C 136.753906 113.792969 136.863281 113.183594 136.863281 112.539062 C 136.863281 98.953125 125.851562 87.9375 112.265625 87.9375 C 98.675781 87.9375 87.664062 98.953125 87.664062 112.539062 C 87.664062 121.019531 91.957031 128.496094 98.484375 132.917969 C 86.0625 139.871094 76.597656 155.925781 73.6875 175.695312 " fill-opacity="1" fill-rule="nonzero"/></g><g clip-path="url(#20f4ca7f3f)"><path fill="#569da6" d="M 146.703125 112.539062 C 146.703125 113.078125 146.570312 113.589844 146.539062 114.121094 C 148.851562 114.355469 151.078125 114.800781 153.234375 115.46875 C 153.136719 114.5 153.023438 113.527344 153.023438 112.539062 C 153.023438 101.792969 158.074219 92.300781 165.808594 85.980469 C 166.921875 83.171875 167.699219 80.199219 167.699219 76.996094 C 167.699219 63.410156 156.683594 52.398438 143.101562 52.398438 C 129.511719 52.398438 118.5 63.410156 118.5 76.996094 C 118.5 77.59375 118.601562 78.160156 118.652344 78.742188 C 134.59375 81.753906 146.703125 95.734375 146.703125 112.539062 " fill-opacity="1" fill-rule="nonzero"/></g></svg>