<svg xmlns="http://www.w3.org/2000/svg" xmlns:xlink="http://www.w3.org/1999/xlink" width="500" zoomAndPan="magnify" viewBox="0 0 375 374.999991" height="500" preserveAspectRatio="xMidYMid meet" version="1.0"><defs><g/><clipPath id="bb0182c436"><path d="M 43.585938 0 L 331.734375 0 L 331.734375 287.027344 L 43.585938 287.027344 Z M 43.585938 0 " clip-rule="nonzero"/></clipPath><clipPath id="f229d93003"><path d="M 187.5 0 C 108.019531 0 43.585938 64.253906 43.585938 143.511719 C 43.585938 222.773438 108.019531 287.027344 187.5 287.027344 C 266.980469 287.027344 331.414062 222.773438 331.414062 143.511719 C 331.414062 64.253906 266.980469 0 187.5 0 Z M 187.5 0 " clip-rule="nonzero"/></clipPath><clipPath id="5fa63c3451"><path d="M 43.585938 0.0117188 L 331.351562 0.0117188 L 331.351562 287.011719 L 43.585938 287.011719 Z M 43.585938 0.0117188 " clip-rule="nonzero"/></clipPath><clipPath id="dc59024838"><path d="M 187.484375 0.0117188 C 108.011719 0.0117188 43.585938 64.261719 43.585938 143.511719 C 43.585938 222.765625 108.011719 287.011719 187.484375 287.011719 C 266.957031 287.011719 331.382812 222.765625 331.382812 143.511719 C 331.382812 64.261719 266.957031 0.0117188 187.484375 0.0117188 Z M 187.484375 0.0117188 " clip-rule="nonzero"/></clipPath><clipPath id="e253eda3f9"><path d="M 161 120 L 280 120 L 280 238.742188 L 161 238.742188 Z M 161 120 " clip-rule="nonzero"/></clipPath><clipPath id="1470265b79"><path d="M 89.191406 49 L 263 49 L 263 223 L 89.191406 223 Z M 89.191406 49 " clip-rule="nonzero"/></clipPath><clipPath id="aee51c1fee"><path d="M 91 43.472656 L 284.457031 43.472656 L 284.457031 238 L 91 238 Z M 91 43.472656 " clip-rule="nonzero"/></clipPath></defs><g clip-path="url(#bb0182c436)"><g clip-path="url(#f229d93003)"><path fill="#dffff0" d="M 43.585938 0 L 331.734375 0 L 331.734375 287.027344 L 43.585938 287.027344 Z M 43.585938 0 " fill-opacity="1" fill-rule="nonzero"/></g></g><g clip-path="url(#5fa63c3451)"><g clip-path="url(#dc59024838)"><path stroke-linecap="butt" transform="matrix(2.055448, 0, 0, 2.055448, 43.587599, 0.0135578)" fill="none" stroke-linejoin="miter" d="M 70.007492 -0.000894718 C 31.3431 -0.000894718 -0.000808455 31.257494 -0.000808455 69.813561 C -0.000808455 108.371529 31.3431 139.628017 70.007492 139.628017 C 108.671884 139.628017 140.015792 108.371529 140.015792 69.813561 C 140.015792 31.257494 108.671884 -0.000894718 70.007492 -0.000894718 Z M 70.007492 -0.000894718 " stroke="#569da6" stroke-width="2.919071" stroke-opacity="1" stroke-miterlimit="4"/></g></g><g fill="#ffffff" fill-opacity="1"><g transform="translate(25.268624, 351.567865)"><g><path d="M 21.15625 0 L 26.203125 0 L 26.203125 -25.609375 C 26.203125 -33.671875 23.09375 -36.859375 16.359375 -36.859375 L 3.484375 -36.859375 L 3.484375 -32.34375 L 15.015625 -32.34375 C 19.828125 -32.34375 21.15625 -30.125 21.15625 -25.15625 Z M 4.0625 0 L 8.953125 0 L 8.953125 -21.453125 L 4.0625 -21.453125 Z M 4.0625 0 "/></g></g></g><g fill="#ffffff" fill-opacity="1"><g transform="translate(55.16308, 351.567865)"><g><path d="M 15.46875 0 L 20.5 0 L 20.5 -25.609375 C 20.5 -33.671875 17.390625 -36.859375 10.65625 -36.859375 L 1.03125 -36.859375 L 1.03125 -32.34375 L 9.328125 -32.34375 C 14.140625 -32.34375 15.46875 -30.125 15.46875 -25.15625 Z M 15.46875 0 "/></g></g></g><g fill="#ffffff" fill-opacity="1"><g transform="translate(79.359826, 351.567865)"><g><path d="M 32.640625 -36.859375 L 27.453125 -36.859375 C 27.75 -34.5625 27.96875 -31.671875 27.96875 -29.453125 C 27.96875 -14.28125 21.828125 -4.890625 10.28125 -4 L 9.46875 -14.140625 C 17.09375 -15.09375 20.421875 -20.203125 20.421875 -30.265625 C 20.421875 -32.34375 20.28125 -34.703125 20.046875 -36.859375 L 15.25 -36.859375 C 15.390625 -35.15625 15.609375 -31.453125 15.609375 -29.75 C 15.609375 -22.859375 14.0625 -18.9375 9.171875 -18.28125 L 7.703125 -36.859375 L 2.65625 -36.859375 L 6 0.078125 L 8.21875 0.375 C 23.90625 0.671875 33 -10.515625 33 -28.484375 C 33 -30.484375 32.859375 -34.859375 32.640625 -36.859375 Z M 32.640625 -36.859375 "/></g></g></g><g fill="#ffffff" fill-opacity="1"><g transform="translate(114.508007, 351.567865)"><g><path d="M 2.078125 0 L 20.046875 0 C 20.71875 -6.515625 21.234375 -16.0625 21.234375 -22.28125 C 21.234375 -33.453125 18.5 -36.859375 9.765625 -36.859375 L 2.8125 -36.859375 L 2.8125 -32.34375 L 8.875 -32.34375 C 14.875 -32.34375 16.203125 -30.125 16.203125 -21.09375 C 16.203125 -16.125 15.984375 -9.109375 15.6875 -4.515625 L 2.078125 -4.515625 Z M 2.078125 0 "/></g></g></g><g fill="#ffffff" fill-opacity="1"><g transform="translate(139.000732, 351.567865)"><g><path d="M 21.15625 0 L 26.203125 0 L 26.203125 -25.609375 C 26.203125 -33.671875 23.09375 -36.859375 16.359375 -36.859375 L 3.484375 -36.859375 L 3.484375 -32.34375 L 15.015625 -32.34375 C 19.828125 -32.34375 21.15625 -30.125 21.15625 -25.15625 Z M 4.0625 0 L 8.953125 0 L 8.953125 -21.453125 L 4.0625 -21.453125 Z M 4.0625 0 "/></g></g></g><g fill="#ffffff" fill-opacity="1"><g transform="translate(168.895188, 351.567865)"><g/></g></g><g fill="#ffffff" fill-opacity="1"><g transform="translate(180.586586, 351.567865)"><g><path d="M 19.390625 -36.859375 L 2.296875 -36.859375 L 2.296875 -32.34375 L 6.734375 -32.34375 L 6.734375 -4.515625 L 2.140625 -4.515625 L 2.140625 0 L 11.765625 0 L 11.765625 -32.34375 L 18.0625 -32.34375 C 22.859375 -32.34375 24.265625 -30.125 24.265625 -25.15625 L 24.265625 0 L 29.296875 0 L 29.296875 -25.609375 C 29.296875 -33.671875 26.203125 -36.859375 19.390625 -36.859375 Z M 19.390625 -36.859375 "/></g></g></g><g fill="#ffffff" fill-opacity="1"><g transform="translate(213.514879, 351.567865)"><g><path d="M 21.015625 -4.515625 L 21.015625 -25.53125 C 21.015625 -33.59375 17.984375 -36.859375 10.359375 -36.859375 L 2.515625 -36.859375 L 2.515625 -32.34375 L 9.921875 -32.34375 C 14.71875 -32.34375 15.984375 -30.1875 15.984375 -25.015625 L 15.984375 -4.515625 L 2.140625 -4.515625 L 2.140625 0 L 25.09375 0 L 25.09375 -4.515625 Z M 21.015625 -4.515625 "/></g></g></g><g fill="#ffffff" fill-opacity="1"><g transform="translate(239.783508, 351.567865)"><g><path d="M 7.25 -15.3125 L 12.28125 -15.3125 L 12.28125 -36.859375 L 1.1875 -36.859375 L 1.1875 -32.34375 L 7.25 -32.34375 Z M 7.25 -15.3125 "/></g></g></g><g fill="#ffffff" fill-opacity="1"><g transform="translate(255.914683, 351.567865)"><g><path d="M 21.015625 -4.515625 L 21.015625 -25.53125 C 21.015625 -33.59375 17.984375 -36.859375 10.359375 -36.859375 L 2.515625 -36.859375 L 2.515625 -32.34375 L 9.921875 -32.34375 C 14.71875 -32.34375 15.984375 -30.1875 15.984375 -25.015625 L 15.984375 -4.515625 L 2.140625 -4.515625 L 2.140625 0 L 25.09375 0 L 25.09375 -4.515625 Z M 21.015625 -4.515625 "/></g></g></g><g fill="#ffffff" fill-opacity="1"><g transform="translate(282.183312, 351.567865)"><g><path d="M 15.46875 -36.328125 L 7.46875 -36.328125 L 7.25 -39.4375 L 2.296875 -38.625 L 5.546875 0.140625 L 9.03125 0.59375 C 22.421875 -3.921875 27.609375 -13.25 27.609375 -24.265625 C 27.609375 -33.296875 23.828125 -36.328125 15.46875 -36.328125 Z M 9.921875 -5.03125 L 7.84375 -31.890625 L 15.171875 -31.890625 C 20.421875 -31.890625 22.5 -29.59375 22.5 -23.96875 C 22.5 -15.90625 18.9375 -8.65625 9.921875 -5.03125 Z M 9.921875 -5.03125 "/></g></g></g><g fill="#ffffff" fill-opacity="1"><g transform="translate(311.929762, 351.567865)"><g><path d="M 6.875 0.59375 C 9.171875 0.59375 10.953125 -1.265625 10.953125 -3.484375 C 10.953125 -5.765625 9.171875 -7.703125 6.875 -7.703125 C 4.59375 -7.703125 2.8125 -5.765625 2.8125 -3.484375 C 2.8125 -1.265625 4.59375 0.59375 6.875 0.59375 Z M 6.875 0.59375 "/></g></g></g><g fill="#ffffff" fill-opacity="1"><g transform="translate(325.621033, 351.567865)"><g><path d="M 9.625 -25.671875 L 8.515625 -25.671875 L 9.171875 -38.546875 L 20.796875 -38.546875 L 20.796875 -43.140625 L 4.8125 -43.140625 L 3.703125 -20.9375 C 5.109375 -21.15625 6.59375 -21.234375 7.703125 -21.234375 C 13.25 -21.234375 16.421875 -19.09375 16.421875 -12.734375 C 16.421875 -7.03125 13.390625 -4.140625 9.984375 -4.140625 C 7.765625 -4.140625 5.1875 -4.65625 2.65625 -5.703125 L 2.65625 -0.8125 C 4.515625 -0.140625 7.109375 0.4375 10.0625 0.4375 C 15.6875 0.4375 21.453125 -4.296875 21.453125 -13.09375 C 21.453125 -22.421875 16.5 -25.671875 9.625 -25.671875 Z M 9.625 -25.671875 "/></g></g></g><g clip-path="url(#e253eda3f9)"><path fill="#569da6" d="M 270.726562 131.800781 C 271.148438 134.710938 271.46875 137.664062 271.59375 140.660156 L 265.699219 140.660156 C 264.246094 143.085938 262.695312 145.507812 261.089844 147.9375 L 271.585938 147.9375 C 270.765625 167.816406 263.335938 186.019531 251.339844 200.320312 C 245.484375 196.945312 238.835938 194.050781 231.632812 191.648438 C 232.746094 188.332031 233.738281 184.882812 234.609375 181.332031 C 232.507812 183.582031 230.40625 185.820312 228.199219 188.027344 C 225.53125 190.695312 222.808594 193.285156 220.074219 195.800781 C 220.832031 195.984375 221.617188 196.136719 222.351562 196.328125 C 214.402344 215.988281 202.121094 229.265625 188.109375 231.25 L 188.109375 220.90625 C 185.679688 222.515625 183.257812 224.0625 180.835938 225.519531 L 180.835938 231.25 C 178.589844 230.929688 176.414062 230.226562 174.265625 229.34375 C 169.828125 231.789062 165.429688 233.890625 161.078125 235.8125 C 168.570312 237.734375 176.375 238.867188 184.480469 238.867188 C 211.390625 238.867188 235.605469 227.578125 252.824219 209.542969 C 254.453125 207.84375 256.070312 206.117188 257.566406 204.300781 C 270.996094 187.96875 279.058594 167.074219 279.058594 144.300781 C 279.058594 136.171875 277.988281 128.292969 276.058594 120.765625 C 274.460938 124.410156 272.707031 128.089844 270.726562 131.800781 Z M 210.101562 227.738281 C 217.730469 220.667969 224.265625 210.546875 229.195312 198.328125 C 235.511719 200.378906 241.351562 202.816406 246.503906 205.636719 C 236.492188 215.765625 224.039062 223.453125 210.101562 227.738281 Z M 210.101562 227.738281 " fill-opacity="1" fill-rule="nonzero"/></g><g clip-path="url(#1470265b79)"><path fill="#569da6" d="M 111.394531 204.300781 C 112.890625 206.117188 114.515625 207.835938 116.136719 209.542969 C 120.742188 214.359375 125.871094 218.660156 131.390625 222.425781 C 134.5625 221.902344 137.878906 221.148438 141.394531 220.046875 C 134.460938 216.085938 128.050781 211.296875 122.464844 205.652344 C 127.617188 202.828125 133.457031 200.394531 139.769531 198.339844 C 142.585938 205.324219 145.984375 211.523438 149.746094 216.957031 C 151.90625 216.0625 154.074219 215.136719 156.269531 214.089844 C 152.617188 209.042969 149.34375 203.097656 146.609375 196.339844 C 157.046875 193.605469 168.613281 191.96875 180.851562 191.691406 L 180.851562 199.570312 C 183.28125 197.875 185.703125 196.09375 188.125 194.253906 L 188.125 191.691406 C 189.152344 191.714844 190.132812 191.808594 191.152344 191.851562 C 193.886719 189.683594 196.601562 187.429688 199.296875 185.09375 C 195.632812 184.761719 191.914062 184.511719 188.125 184.425781 L 188.125 147.9375 L 231.671875 147.9375 C 231.640625 149.203125 231.511719 150.417969 231.460938 151.667969 C 234.371094 148.007812 237.171875 144.34375 239.753906 140.660156 L 238.945312 140.660156 C 238.597656 124.773438 236 109.90625 231.648438 96.949219 C 238.851562 94.546875 245.5 91.652344 251.355469 88.277344 C 254.707031 92.269531 257.65625 96.601562 260.253906 101.152344 C 261.359375 97.605469 262.121094 94.25 262.636719 91.070312 C 261.046875 88.742188 259.371094 86.472656 257.589844 84.296875 C 256.089844 82.480469 254.46875 80.761719 252.847656 79.054688 C 235.613281 61.011719 211.394531 49.730469 184.488281 49.730469 C 157.578125 49.730469 133.363281 61.019531 116.136719 79.054688 C 114.515625 80.753906 112.890625 82.480469 111.394531 84.296875 C 97.980469 100.621094 89.917969 121.523438 89.917969 144.300781 C 89.917969 167.074219 97.980469 187.96875 111.394531 204.300781 Z M 246.503906 82.953125 C 241.351562 85.773438 235.511719 88.210938 229.195312 90.261719 C 224.265625 78.042969 217.730469 67.921875 210.101562 60.851562 C 224.039062 65.144531 236.492188 72.828125 246.503906 82.953125 Z M 188.125 57.347656 C 202.136719 59.324219 214.414062 72.609375 222.367188 92.269531 C 211.921875 95.007812 200.359375 96.644531 188.125 96.917969 Z M 188.125 104.179688 C 201.21875 103.890625 213.613281 102.070312 224.832031 99 C 228.882812 111.25 231.335938 125.441406 231.671875 140.660156 L 188.125 140.660156 Z M 180.851562 184.410156 C 167.757812 184.703125 155.359375 186.519531 144.144531 189.589844 C 140.089844 177.339844 137.640625 163.148438 137.304688 147.929688 L 180.851562 147.929688 Z M 180.851562 140.660156 L 137.304688 140.660156 C 137.648438 125.441406 140.097656 111.25 144.144531 99 C 155.359375 102.070312 167.757812 103.890625 180.851562 104.179688 Z M 180.851562 57.347656 L 180.851562 96.914062 C 168.613281 96.636719 157.046875 95 146.609375 92.265625 C 154.558594 72.601562 166.839844 59.324219 180.851562 57.347656 Z M 158.867188 60.851562 C 151.242188 67.921875 144.703125 78.042969 139.769531 90.261719 C 133.457031 88.210938 127.621094 85.773438 122.472656 82.953125 C 132.480469 72.828125 144.929688 65.144531 158.867188 60.851562 Z M 117.628906 88.269531 C 123.484375 91.644531 130.132812 94.539062 137.335938 96.941406 C 132.984375 109.890625 130.386719 124.765625 130.039062 140.65625 L 97.375 140.65625 C 98.203125 120.773438 105.625 102.570312 117.628906 88.269531 Z M 130.039062 147.9375 C 130.386719 163.824219 132.984375 178.691406 137.335938 191.648438 C 130.132812 194.050781 123.484375 196.953125 117.628906 200.320312 C 105.632812 186.019531 98.203125 167.816406 97.382812 147.9375 Z M 130.039062 147.9375 " fill-opacity="1" fill-rule="nonzero"/></g><g clip-path="url(#aee51c1fee)"><path fill="#569da6" d="M 153.082031 231.339844 C 175.882812 222.421875 200.738281 205.203125 223.070312 182.875 C 245.398438 160.542969 262.617188 135.6875 271.535156 112.886719 C 280.054688 91.121094 280.023438 73.445312 271.761719 62.394531 L 279.261719 60.410156 L 284.664062 58.976562 L 275.027344 54.925781 L 266.960938 51.542969 L 248.621094 43.835938 L 256.324219 62.167969 L 260.035156 71 L 262.738281 77.445312 L 263.765625 79.882812 L 266.914062 68.003906 C 272.546875 77.097656 271.855469 92.125 264.761719 110.230469 C 256.199219 132.121094 239.570312 156.097656 217.929688 177.734375 C 196.285156 199.367188 172.308594 216.003906 150.429688 224.566406 C 140.332031 228.515625 131.207031 230.457031 123.527344 230.453125 C 115.511719 230.4375 109.050781 228.3125 104.757812 224.027344 C 99.410156 218.679688 97.410156 209.980469 98.722656 199.070312 C 96.699219 195.90625 94.871094 192.625 93.199219 189.234375 C 88.949219 206.640625 91.039062 220.601562 99.617188 229.164062 C 105.363281 234.910156 113.488281 237.792969 123.46875 237.792969 C 123.476562 237.792969 123.484375 237.792969 123.492188 237.792969 C 132.105469 237.792969 142.078125 235.644531 153.082031 231.339844 Z M 153.082031 231.339844 " fill-opacity="1" fill-rule="nonzero"/></g></svg>