<svg xmlns="http://www.w3.org/2000/svg" xmlns:xlink="http://www.w3.org/1999/xlink" width="500" zoomAndPan="magnify" viewBox="0 0 375 374.999991" height="500" preserveAspectRatio="xMidYMid meet" version="1.0"><defs><g/><clipPath id="0f0a11f098"><path d="M 45.335938 0 L 329.664062 0 L 329.664062 284.324219 L 45.335938 284.324219 Z M 45.335938 0 " clip-rule="nonzero"/></clipPath><clipPath id="7af72f188f"><path d="M 187.5 0 C 108.984375 0 45.335938 63.648438 45.335938 142.164062 C 45.335938 220.675781 108.984375 284.324219 187.5 284.324219 C 266.015625 284.324219 329.664062 220.675781 329.664062 142.164062 C 329.664062 63.648438 266.015625 0 187.5 0 Z M 187.5 0 " clip-rule="nonzero"/></clipPath><clipPath id="b39f18383d"><path d="M 45.335938 0 L 329.660156 0 L 329.660156 284.324219 L 45.335938 284.324219 Z M 45.335938 0 " clip-rule="nonzero"/></clipPath><clipPath id="13222e9584"><path d="M 187.5 0 C 108.984375 0 45.335938 63.648438 45.335938 142.160156 C 45.335938 220.675781 108.984375 284.324219 187.5 284.324219 C 266.011719 284.324219 329.660156 220.675781 329.660156 142.160156 C 329.660156 63.648438 266.011719 0 187.5 0 Z M 187.5 0 " clip-rule="nonzero"/></clipPath><clipPath id="708bf55598"><path d="M 214 127 L 300.738281 127 L 300.738281 207 L 214 207 Z M 214 127 " clip-rule="nonzero"/></clipPath><clipPath id="c63535b1ad"><path d="M 228 62.679688 L 283 62.679688 L 283 118 L 228 118 Z M 228 62.679688 " clip-rule="nonzero"/></clipPath><clipPath id="97b48def91"><path d="M 74.730469 128 L 161 128 L 161 207 L 74.730469 207 Z M 74.730469 128 " clip-rule="nonzero"/></clipPath><clipPath id="cce7bafae9"><path d="M 92 62.679688 L 147 62.679688 L 147 118 L 92 118 Z M 92 62.679688 " clip-rule="nonzero"/></clipPath></defs><g clip-path="url(#0f0a11f098)"><g clip-path="url(#7af72f188f)"><path fill="#dffff0" d="M 45.335938 0 L 329.664062 0 L 329.664062 284.324219 L 45.335938 284.324219 Z M 45.335938 0 " fill-opacity="1" fill-rule="nonzero"/></g></g><g clip-path="url(#b39f18383d)"><g clip-path="url(#13222e9584)"><path stroke-linecap="butt" transform="matrix(2.036104, 0, 0, 2.036104, 45.337259, 0.000000000000318283)" fill="none" stroke-linejoin="miter" d="M 69.820968 -0.000000000000156319 C 31.259268 -0.000000000000156319 -0.000649094 31.259917 -0.000649094 69.819698 C -0.000649094 108.381398 31.259268 139.641315 69.820968 139.641315 C 108.380749 139.641315 139.640666 108.381398 139.640666 69.819698 C 139.640666 31.259917 108.380749 -0.000000000000156319 69.820968 -0.000000000000156319 Z M 69.820968 -0.000000000000156319 " stroke="#569da6" stroke-width="3.683505" stroke-opacity="1" stroke-miterlimit="4"/></g></g><g fill="#ffffff" fill-opacity="1"><g transform="translate(51.132837, 352.059868)"><g><path d="M 21.734375 0 L 26.90625 0 L 26.90625 -26.296875 C 26.90625 -34.578125 23.71875 -37.84375 16.796875 -37.84375 L 3.578125 -37.84375 L 3.578125 -33.21875 L 15.421875 -33.21875 C 20.375 -33.21875 21.734375 -30.9375 21.734375 -25.84375 Z M 4.1875 0 L 9.203125 0 L 9.203125 -22.046875 L 4.1875 -22.046875 Z M 4.1875 0 "/></g></g></g><g fill="#ffffff" fill-opacity="1"><g transform="translate(81.838529, 352.059868)"><g><path d="M 15.890625 0 L 21.046875 0 L 21.046875 -26.296875 C 21.046875 -34.578125 17.859375 -37.84375 10.9375 -37.84375 L 1.0625 -37.84375 L 1.0625 -33.21875 L 9.578125 -33.21875 C 14.515625 -33.21875 15.890625 -30.9375 15.890625 -25.84375 Z M 15.890625 0 "/></g></g></g><g fill="#ffffff" fill-opacity="1"><g transform="translate(106.691883, 352.059868)"><g><path d="M 33.515625 -37.84375 L 28.203125 -37.84375 C 28.5 -35.484375 28.734375 -32.53125 28.734375 -30.25 C 28.734375 -14.671875 22.421875 -5.015625 10.5625 -4.109375 L 9.734375 -14.515625 C 17.5625 -15.5 20.96875 -20.75 20.96875 -31.078125 C 20.96875 -33.21875 20.828125 -35.640625 20.59375 -37.84375 L 15.65625 -37.84375 C 15.8125 -36.09375 16.03125 -32.296875 16.03125 -30.546875 C 16.03125 -23.484375 14.4375 -19.453125 9.421875 -18.765625 L 7.90625 -37.84375 L 2.734375 -37.84375 L 6.15625 0.078125 L 8.4375 0.375 C 24.546875 0.6875 33.890625 -10.796875 33.890625 -29.265625 C 33.890625 -31.3125 33.75 -35.796875 33.515625 -37.84375 Z M 33.515625 -37.84375 "/></g></g></g><g fill="#ffffff" fill-opacity="1"><g transform="translate(142.793859, 352.059868)"><g><path d="M 2.125 0 L 20.59375 0 C 21.28125 -6.6875 21.8125 -16.484375 21.8125 -22.875 C 21.8125 -34.359375 19 -37.84375 10.03125 -37.84375 L 2.890625 -37.84375 L 2.890625 -33.21875 L 9.125 -33.21875 C 15.28125 -33.21875 16.640625 -30.9375 16.640625 -21.65625 C 16.640625 -16.5625 16.421875 -9.34375 16.109375 -4.640625 L 2.125 -4.640625 Z M 2.125 0 "/></g></g></g><g fill="#ffffff" fill-opacity="1"><g transform="translate(167.95125, 352.059868)"><g><path d="M 21.734375 0 L 26.90625 0 L 26.90625 -26.296875 C 26.90625 -34.578125 23.71875 -37.84375 16.796875 -37.84375 L 3.578125 -37.84375 L 3.578125 -33.21875 L 15.421875 -33.21875 C 20.375 -33.21875 21.734375 -30.9375 21.734375 -25.84375 Z M 4.1875 0 L 9.203125 0 L 9.203125 -22.046875 L 4.1875 -22.046875 Z M 4.1875 0 "/></g></g></g><g fill="#ffffff" fill-opacity="1"><g transform="translate(198.656942, 352.059868)"><g/></g></g><g fill="#ffffff" fill-opacity="1"><g transform="translate(210.665593, 352.059868)"><g><path d="M 23.25 -37.84375 L 6.6875 -37.84375 L 6.765625 -49.09375 L 1.59375 -48.484375 L 1.515625 -33.21875 L 17.25 -33.21875 L 7.59375 0 L 12.765625 0 L 23.640625 -37.390625 Z M 23.25 -37.84375 "/></g></g></g><g fill="#ffffff" fill-opacity="1"><g transform="translate(235.290936, 352.059868)"><g><path d="M 1.90625 0.609375 C 6.3125 -0.984375 9.734375 -2.96875 13.296875 -6.390625 L 14.59375 0 L 19.609375 0 L 17.625 -9.953125 L 17.328125 -26.90625 C 17.09375 -35.265625 15.046875 -38.078125 8.125 -38.078125 C 6.6875 -38.078125 5.09375 -38 3.265625 -37.765625 L 3.265625 -33.21875 C 4.5625 -33.359375 5.78125 -33.4375 6.765625 -33.4375 C 10.71875 -33.4375 12.078125 -31.765625 12.3125 -25.609375 L 12.546875 -11.46875 C 9.578125 -8.65625 5.859375 -6.15625 1.90625 -4.859375 Z M 1.90625 0.609375 "/></g></g></g><g fill="#ffffff" fill-opacity="1"><g transform="translate(257.18014, 352.059868)"><g><path d="M 15.890625 -37.3125 L 7.671875 -37.3125 L 7.453125 -40.515625 L 2.359375 -39.671875 L 5.703125 0.15625 L 9.265625 0.609375 C 23.03125 -4.03125 28.34375 -13.609375 28.34375 -24.921875 C 28.34375 -34.203125 24.46875 -37.3125 15.890625 -37.3125 Z M 10.1875 -5.171875 L 8.0625 -32.75 L 15.578125 -32.75 C 20.96875 -32.75 23.109375 -30.40625 23.109375 -24.625 C 23.109375 -16.34375 19.453125 -8.890625 10.1875 -5.171875 Z M 10.1875 -5.171875 "/></g></g></g><g fill="#ffffff" fill-opacity="1"><g transform="translate(287.733814, 352.059868)"><g><path d="M 7.0625 0.609375 C 9.421875 0.609375 11.25 -1.296875 11.25 -3.578125 C 11.25 -5.921875 9.421875 -7.90625 7.0625 -7.90625 C 4.71875 -7.90625 2.890625 -5.921875 2.890625 -3.578125 C 2.890625 -1.296875 4.71875 0.609375 7.0625 0.609375 Z M 7.0625 0.609375 "/></g></g></g><g fill="#ffffff" fill-opacity="1"><g transform="translate(301.796309, 352.059868)"><g><path d="M 2.8125 -0.90625 C 4.640625 -0.15625 6.609375 0.53125 10.03125 0.53125 C 15.953125 0.53125 22.046875 -3.5 22.046875 -12.6875 C 22.046875 -19.296875 18.3125 -23.1875 14.359375 -23.640625 L 14.359375 -23.859375 C 16.71875 -24.703125 20.75 -28.421875 20.75 -34.890625 C 20.75 -40.890625 17.40625 -44.921875 11.09375 -44.921875 C 8.125 -44.921875 5.3125 -44.078125 3.046875 -42.484375 L 3.046875 -37.234375 C 5.46875 -39.21875 7.90625 -39.90625 9.953125 -39.90625 C 13.6875 -39.90625 15.5 -37.015625 15.5 -33.4375 C 15.5 -28.65625 11.328125 -25 7.671875 -24.546875 L 7.671875 -20.59375 C 13.078125 -20.375 16.875 -17.78125 16.875 -12.390625 C 16.875 -7.75 14.21875 -4.40625 10.484375 -4.40625 C 8.0625 -4.40625 5.46875 -4.71875 2.8125 -6.078125 Z M 2.8125 -0.90625 "/></g></g></g><path fill="#569da6" d="M 199.222656 149.789062 L 175.769531 149.789062 C 157.457031 149.789062 142.617188 164.628906 142.617188 182.941406 L 142.617188 220.695312 C 171.574219 231.25 203.375 231.25 232.332031 220.695312 L 232.332031 182.941406 C 232.378906 164.628906 217.539062 149.789062 199.222656 149.789062 Z M 199.222656 149.789062 " fill-opacity="1" fill-rule="nonzero"/><path fill="#569da6" d="M 214.695312 111.71875 C 214.695312 112.613281 214.652344 113.5 214.566406 114.386719 C 214.476562 115.273438 214.347656 116.152344 214.171875 117.027344 C 214 117.902344 213.78125 118.761719 213.523438 119.617188 C 213.265625 120.46875 212.964844 121.304688 212.625 122.128906 C 212.285156 122.953125 211.902344 123.757812 211.484375 124.542969 C 211.0625 125.328125 210.605469 126.089844 210.113281 126.832031 C 209.617188 127.570312 209.085938 128.285156 208.523438 128.976562 C 207.957031 129.664062 207.359375 130.324219 206.730469 130.953125 C 206.097656 131.582031 205.441406 132.179688 204.75 132.746094 C 204.0625 133.3125 203.347656 133.839844 202.609375 134.335938 C 201.867188 134.832031 201.105469 135.289062 200.316406 135.707031 C 199.53125 136.128906 198.726562 136.507812 197.90625 136.847656 C 197.082031 137.191406 196.246094 137.488281 195.390625 137.75 C 194.539062 138.007812 193.675781 138.222656 192.804688 138.398438 C 191.929688 138.570312 191.050781 138.703125 190.164062 138.789062 C 189.277344 138.875 188.386719 138.917969 187.496094 138.917969 C 186.605469 138.917969 185.71875 138.875 184.832031 138.789062 C 183.945312 138.703125 183.0625 138.570312 182.191406 138.398438 C 181.316406 138.222656 180.453125 138.007812 179.601562 137.75 C 178.75 137.488281 177.910156 137.191406 177.089844 136.847656 C 176.265625 136.507812 175.460938 136.128906 174.675781 135.707031 C 173.890625 135.289062 173.125 134.832031 172.386719 134.335938 C 171.644531 133.839844 170.929688 133.3125 170.242188 132.746094 C 169.554688 132.179688 168.894531 131.582031 168.265625 130.953125 C 167.632812 130.324219 167.035156 129.664062 166.472656 128.976562 C 165.90625 128.285156 165.375 127.570312 164.882812 126.832031 C 164.386719 126.089844 163.929688 125.328125 163.507812 124.542969 C 163.089844 123.757812 162.710938 122.953125 162.367188 122.128906 C 162.027344 121.304688 161.726562 120.46875 161.46875 119.617188 C 161.210938 118.761719 160.996094 117.902344 160.820312 117.027344 C 160.648438 116.152344 160.515625 115.273438 160.429688 114.386719 C 160.339844 113.5 160.296875 112.613281 160.296875 111.71875 C 160.296875 110.828125 160.339844 109.941406 160.429688 109.054688 C 160.515625 108.167969 160.648438 107.289062 160.820312 106.414062 C 160.996094 105.539062 161.210938 104.675781 161.46875 103.824219 C 161.726562 102.972656 162.027344 102.136719 162.367188 101.3125 C 162.710938 100.488281 163.089844 99.683594 163.507812 98.898438 C 163.929688 98.113281 164.386719 97.351562 164.882812 96.609375 C 165.375 95.867188 165.90625 95.15625 166.472656 94.464844 C 167.035156 93.777344 167.632812 93.117188 168.265625 92.488281 C 168.894531 91.859375 169.554688 91.261719 170.242188 90.695312 C 170.929688 90.128906 171.644531 89.601562 172.386719 89.105469 C 173.125 88.609375 173.890625 88.152344 174.675781 87.734375 C 175.460938 87.3125 176.265625 86.933594 177.089844 86.59375 C 177.910156 86.25 178.75 85.953125 179.601562 85.691406 C 180.453125 85.433594 181.316406 85.21875 182.191406 85.042969 C 183.0625 84.871094 183.945312 84.738281 184.832031 84.652344 C 185.71875 84.566406 186.605469 84.523438 187.496094 84.523438 C 188.386719 84.523438 189.277344 84.566406 190.164062 84.652344 C 191.050781 84.738281 191.929688 84.871094 192.804688 85.042969 C 193.675781 85.21875 194.539062 85.433594 195.390625 85.691406 C 196.246094 85.953125 197.082031 86.25 197.90625 86.59375 C 198.726562 86.933594 199.53125 87.3125 200.316406 87.734375 C 201.105469 88.152344 201.867188 88.609375 202.609375 89.105469 C 203.347656 89.601562 204.0625 90.128906 204.75 90.695312 C 205.441406 91.261719 206.097656 91.859375 206.730469 92.488281 C 207.359375 93.117188 207.957031 93.777344 208.523438 94.464844 C 209.085938 95.15625 209.617188 95.867188 210.113281 96.609375 C 210.605469 97.351562 211.0625 98.113281 211.484375 98.898438 C 211.902344 99.683594 212.285156 100.488281 212.625 101.3125 C 212.964844 102.136719 213.265625 102.972656 213.523438 103.824219 C 213.78125 104.675781 214 105.539062 214.171875 106.414062 C 214.347656 107.289062 214.476562 108.167969 214.566406 109.054688 C 214.652344 109.941406 214.695312 110.828125 214.695312 111.71875 Z M 214.695312 111.71875 " fill-opacity="1" fill-rule="nonzero"/><g clip-path="url(#708bf55598)"><path fill="#569da6" d="M 267.109375 127.957031 L 243.652344 127.957031 C 230.753906 127.957031 219.566406 135.355469 214.109375 146.136719 C 228.632812 152.046875 238.917969 166.300781 238.917969 182.898438 L 238.917969 205.722656 C 259.484375 208.335938 280.550781 206.039062 300.261719 198.867188 L 300.261719 161.113281 C 300.261719 142.796875 285.421875 127.957031 267.109375 127.957031 Z M 267.109375 127.957031 " fill-opacity="1" fill-rule="nonzero"/></g><g clip-path="url(#c63535b1ad)"><path fill="#569da6" d="M 282.582031 89.890625 C 282.582031 90.78125 282.535156 91.667969 282.449219 92.554688 C 282.363281 93.441406 282.230469 94.320312 282.058594 95.195312 C 281.882812 96.070312 281.667969 96.933594 281.410156 97.785156 C 281.152344 98.636719 280.851562 99.476562 280.511719 100.296875 C 280.167969 101.121094 279.789062 101.925781 279.367188 102.710938 C 278.949219 103.496094 278.492188 104.257812 277.996094 105 C 277.5 105.742188 276.972656 106.457031 276.40625 107.144531 C 275.839844 107.832031 275.242188 108.492188 274.613281 109.121094 C 273.984375 109.75 273.324219 110.347656 272.636719 110.914062 C 271.949219 111.480469 271.234375 112.007812 270.492188 112.503906 C 269.75 113 268.988281 113.457031 268.203125 113.875 C 267.417969 114.296875 266.613281 114.675781 265.789062 115.019531 C 264.96875 115.359375 264.128906 115.660156 263.277344 115.917969 C 262.425781 116.175781 261.5625 116.390625 260.6875 116.566406 C 259.8125 116.738281 258.933594 116.871094 258.046875 116.957031 C 257.160156 117.042969 256.273438 117.089844 255.382812 117.089844 C 254.492188 117.089844 253.601562 117.042969 252.714844 116.957031 C 251.828125 116.871094 250.949219 116.738281 250.074219 116.566406 C 249.203125 116.390625 248.339844 116.175781 247.484375 115.917969 C 246.632812 115.660156 245.796875 115.359375 244.972656 115.019531 C 244.148438 114.675781 243.34375 114.296875 242.558594 113.875 C 241.773438 113.457031 241.011719 113 240.269531 112.503906 C 239.53125 112.007812 238.816406 111.480469 238.125 110.914062 C 237.4375 110.347656 236.777344 109.75 236.148438 109.121094 C 235.519531 108.492188 234.921875 107.832031 234.355469 107.144531 C 233.792969 106.457031 233.261719 105.742188 232.765625 105 C 232.269531 104.257812 231.8125 103.496094 231.394531 102.710938 C 230.972656 101.925781 230.59375 101.121094 230.253906 100.296875 C 229.910156 99.476562 229.613281 98.636719 229.355469 97.785156 C 229.09375 96.933594 228.878906 96.070312 228.703125 95.195312 C 228.53125 94.320312 228.402344 93.441406 228.3125 92.554688 C 228.226562 91.667969 228.183594 90.78125 228.183594 89.890625 C 228.183594 89 228.226562 88.109375 228.3125 87.222656 C 228.402344 86.335938 228.53125 85.457031 228.703125 84.582031 C 228.878906 83.710938 229.09375 82.847656 229.355469 81.992188 C 229.613281 81.140625 229.910156 80.304688 230.253906 79.480469 C 230.59375 78.65625 230.972656 77.851562 231.394531 77.066406 C 231.8125 76.28125 232.269531 75.519531 232.765625 74.777344 C 233.261719 74.039062 233.792969 73.324219 234.355469 72.632812 C 234.921875 71.945312 235.519531 71.285156 236.148438 70.65625 C 236.777344 70.027344 237.4375 69.429688 238.125 68.863281 C 238.816406 68.300781 239.53125 67.769531 240.269531 67.273438 C 241.011719 66.777344 241.773438 66.320312 242.558594 65.902344 C 243.34375 65.480469 244.148438 65.101562 244.972656 64.761719 C 245.796875 64.417969 246.632812 64.121094 247.484375 63.863281 C 248.339844 63.601562 249.203125 63.386719 250.074219 63.214844 C 250.949219 63.039062 251.828125 62.910156 252.714844 62.820312 C 253.601562 62.734375 254.492188 62.691406 255.382812 62.691406 C 256.273438 62.691406 257.160156 62.734375 258.046875 62.820312 C 258.933594 62.910156 259.8125 63.039062 260.6875 63.214844 C 261.5625 63.386719 262.425781 63.601562 263.277344 63.863281 C 264.128906 64.121094 264.96875 64.417969 265.789062 64.761719 C 266.613281 65.101562 267.417969 65.480469 268.203125 65.902344 C 268.988281 66.320312 269.75 66.777344 270.492188 67.273438 C 271.234375 67.769531 271.949219 68.300781 272.636719 68.863281 C 273.324219 69.429688 273.984375 70.027344 274.613281 70.65625 C 275.242188 71.285156 275.839844 71.945312 276.40625 72.632812 C 276.972656 73.324219 277.5 74.039062 277.996094 74.777344 C 278.492188 75.519531 278.949219 76.28125 279.367188 77.066406 C 279.789062 77.851562 280.167969 78.65625 280.511719 79.480469 C 280.851562 80.304688 281.152344 81.140625 281.410156 81.992188 C 281.667969 82.847656 281.882812 83.710938 282.058594 84.582031 C 282.230469 85.457031 282.363281 86.335938 282.449219 87.222656 C 282.535156 88.109375 282.582031 89 282.582031 89.890625 Z M 282.582031 89.890625 " fill-opacity="1" fill-rule="nonzero"/></g><g clip-path="url(#97b48def91)"><path fill="#569da6" d="M 160.882812 146.179688 C 155.425781 135.402344 144.238281 128.003906 131.339844 128.003906 L 107.882812 128.003906 C 89.570312 127.957031 74.730469 142.796875 74.730469 161.113281 L 74.730469 198.867188 C 94.488281 206.082031 115.507812 208.335938 136.074219 205.722656 L 136.074219 182.898438 C 136.074219 166.300781 146.359375 152.046875 160.882812 146.179688 Z M 160.882812 146.179688 " fill-opacity="1" fill-rule="nonzero"/></g><g clip-path="url(#cce7bafae9)"><path fill="#569da6" d="M 146.8125 89.890625 C 146.8125 90.78125 146.765625 91.667969 146.679688 92.554688 C 146.59375 93.441406 146.460938 94.320312 146.289062 95.195312 C 146.113281 96.070312 145.898438 96.933594 145.640625 97.785156 C 145.382812 98.636719 145.082031 99.476562 144.742188 100.296875 C 144.398438 101.121094 144.019531 101.925781 143.597656 102.710938 C 143.179688 103.496094 142.722656 104.257812 142.226562 105 C 141.730469 105.742188 141.203125 106.457031 140.636719 107.144531 C 140.070312 107.832031 139.476562 108.492188 138.84375 109.121094 C 138.214844 109.75 137.554688 110.347656 136.867188 110.914062 C 136.179688 111.480469 135.464844 112.007812 134.722656 112.503906 C 133.980469 113 133.21875 113.457031 132.433594 113.875 C 131.648438 114.296875 130.84375 114.675781 130.019531 115.019531 C 129.199219 115.359375 128.359375 115.660156 127.507812 115.917969 C 126.65625 116.175781 125.792969 116.390625 124.917969 116.566406 C 124.042969 116.738281 123.164062 116.871094 122.277344 116.957031 C 121.390625 117.042969 120.503906 117.089844 119.613281 117.089844 C 118.722656 117.089844 117.832031 117.042969 116.945312 116.957031 C 116.058594 116.871094 115.179688 116.738281 114.304688 116.566406 C 113.433594 116.390625 112.570312 116.175781 111.714844 115.917969 C 110.863281 115.660156 110.027344 115.359375 109.203125 115.019531 C 108.378906 114.675781 107.578125 114.296875 106.789062 113.875 C 106.003906 113.457031 105.242188 113 104.5 112.503906 C 103.761719 112.007812 103.046875 111.480469 102.355469 110.914062 C 101.667969 110.347656 101.007812 109.75 100.378906 109.121094 C 99.75 108.492188 99.152344 107.832031 98.585938 107.144531 C 98.023438 106.457031 97.492188 105.742188 96.996094 105 C 96.503906 104.257812 96.042969 103.496094 95.625 102.710938 C 95.203125 101.925781 94.824219 101.121094 94.484375 100.296875 C 94.144531 99.476562 93.84375 98.636719 93.585938 97.785156 C 93.324219 96.933594 93.109375 96.070312 92.9375 95.195312 C 92.761719 94.320312 92.632812 93.441406 92.542969 92.554688 C 92.457031 91.667969 92.414062 90.78125 92.414062 89.890625 C 92.414062 89 92.457031 88.109375 92.542969 87.222656 C 92.632812 86.335938 92.761719 85.457031 92.9375 84.582031 C 93.109375 83.710938 93.324219 82.847656 93.585938 81.992188 C 93.84375 81.140625 94.144531 80.304688 94.484375 79.480469 C 94.824219 78.65625 95.203125 77.851562 95.625 77.066406 C 96.042969 76.28125 96.503906 75.519531 96.996094 74.777344 C 97.492188 74.039062 98.023438 73.324219 98.585938 72.632812 C 99.152344 71.945312 99.75 71.285156 100.378906 70.65625 C 101.007812 70.027344 101.667969 69.429688 102.355469 68.863281 C 103.046875 68.300781 103.761719 67.769531 104.5 67.273438 C 105.242188 66.777344 106.003906 66.320312 106.789062 65.902344 C 107.578125 65.480469 108.378906 65.101562 109.203125 64.761719 C 110.027344 64.417969 110.863281 64.121094 111.714844 63.863281 C 112.570312 63.601562 113.433594 63.386719 114.304688 63.214844 C 115.179688 63.039062 116.058594 62.910156 116.945312 62.820312 C 117.832031 62.734375 118.722656 62.691406 119.613281 62.691406 C 120.503906 62.691406 121.390625 62.734375 122.277344 62.820312 C 123.164062 62.910156 124.042969 63.039062 124.917969 63.214844 C 125.792969 63.386719 126.65625 63.601562 127.507812 63.863281 C 128.359375 64.121094 129.199219 64.417969 130.019531 64.761719 C 130.84375 65.101562 131.648438 65.480469 132.433594 65.902344 C 133.21875 66.320312 133.980469 66.777344 134.722656 67.273438 C 135.464844 67.769531 136.179688 68.300781 136.867188 68.863281 C 137.554688 69.429688 138.214844 70.027344 138.84375 70.65625 C 139.476562 71.285156 140.070312 71.945312 140.636719 72.632812 C 141.203125 73.324219 141.730469 74.039062 142.226562 74.777344 C 142.722656 75.519531 143.179688 76.28125 143.597656 77.066406 C 144.019531 77.851562 144.398438 78.65625 144.742188 79.480469 C 145.082031 80.304688 145.382812 81.140625 145.640625 81.992188 C 145.898438 82.847656 146.113281 83.710938 146.289062 84.582031 C 146.460938 85.457031 146.59375 86.335938 146.679688 87.222656 C 146.765625 88.109375 146.8125 89 146.8125 89.890625 Z M 146.8125 89.890625 " fill-opacity="1" fill-rule="nonzero"/></g></svg>