<svg xmlns="http://www.w3.org/2000/svg" xmlns:xlink="http://www.w3.org/1999/xlink" width="500" zoomAndPan="magnify" viewBox="0 0 375 374.999991" height="500" preserveAspectRatio="xMidYMid meet" version="1.0"><defs><g/><clipPath id="f22cd5948d"><path d="M 72.246094 27.011719 L 302.753906 27.011719 L 302.753906 257.523438 L 72.246094 257.523438 Z M 72.246094 27.011719 " clip-rule="nonzero"/></clipPath><clipPath id="b2c9f8a91a"><path d="M 187.5 27.011719 C 123.847656 27.011719 72.246094 78.613281 72.246094 142.269531 C 72.246094 205.921875 123.847656 257.523438 187.5 257.523438 C 251.152344 257.523438 302.753906 205.921875 302.753906 142.269531 C 302.753906 78.613281 251.152344 27.011719 187.5 27.011719 Z M 187.5 27.011719 " clip-rule="nonzero"/></clipPath><clipPath id="583d1fb5b3"><path d="M 72.246094 27.011719 L 302.152344 27.011719 L 302.152344 256.921875 L 72.246094 256.921875 Z M 72.246094 27.011719 " clip-rule="nonzero"/></clipPath><clipPath id="f1d302f073"><path d="M 187.488281 27.011719 C 123.839844 27.011719 72.246094 78.609375 72.246094 142.253906 C 72.246094 205.902344 123.839844 257.496094 187.488281 257.496094 C 251.132812 257.496094 302.726562 205.902344 302.726562 142.253906 C 302.726562 78.609375 251.132812 27.011719 187.488281 27.011719 Z M 187.488281 27.011719 " clip-rule="nonzero"/></clipPath><clipPath id="5df8c31650"><path d="M 132 61.164062 L 157 61.164062 L 157 86 L 132 86 Z M 132 61.164062 " clip-rule="nonzero"/></clipPath><clipPath id="da5d226457"><path d="M 189 186 L 258.417969 186 L 258.417969 217.359375 L 189 217.359375 Z M 189 186 " clip-rule="nonzero"/></clipPath><clipPath id="efefbe4994"><path d="M 116.261719 186 L 186 186 L 186 217.359375 L 116.261719 217.359375 Z M 116.261719 186 " clip-rule="nonzero"/></clipPath></defs><g clip-path="url(#f22cd5948d)"><g clip-path="url(#b2c9f8a91a)"><path fill="#dffff0" d="M 72.246094 27.011719 L 302.753906 27.011719 L 302.753906 257.523438 L 72.246094 257.523438 Z M 72.246094 27.011719 " fill-opacity="1" fill-rule="nonzero"/></g></g><g clip-path="url(#583d1fb5b3)"><g clip-path="url(#f1d302f073)"><path stroke-linecap="butt" transform="matrix(1.755022, 0, 0, 1.755022, 72.244622, 27.013055)" fill="none" stroke-linejoin="miter" d="M 65.665084 -0.000761629 C 29.39862 -0.000761629 0.000838505 29.399246 0.000838505 65.663484 C 0.000838505 101.929948 29.39862 131.32773 65.665084 131.32773 C 101.929323 131.32773 131.327104 101.929948 131.327104 65.663484 C 131.327104 29.399246 101.929323 -0.000761629 65.665084 -0.000761629 Z M 65.665084 -0.000761629 " stroke="#569da6" stroke-width="3.41876" stroke-opacity="1" stroke-miterlimit="4"/></g></g><g fill="#ffffff" fill-opacity="1"><g transform="translate(62.824303, 328.213653)"><g><path d="M 18.734375 0 L 23.1875 0 L 23.1875 -22.671875 C 23.1875 -29.8125 20.4375 -32.625 14.484375 -32.625 L 3.078125 -32.625 L 3.078125 -28.625 L 13.296875 -28.625 C 17.5625 -28.625 18.734375 -26.671875 18.734375 -22.28125 Z M 3.609375 0 L 7.921875 0 L 7.921875 -19 L 3.609375 -19 Z M 3.609375 0 "/></g></g></g><g fill="#ffffff" fill-opacity="1"><g transform="translate(89.291107, 328.213653)"><g><path d="M 1.828125 0 L 17.75 0 C 18.34375 -5.765625 18.796875 -14.21875 18.796875 -19.71875 C 18.796875 -29.609375 16.375 -32.625 8.640625 -32.625 L 2.484375 -32.625 L 2.484375 -28.625 L 7.859375 -28.625 C 13.171875 -28.625 14.34375 -26.671875 14.34375 -18.671875 C 14.34375 -14.28125 14.15625 -8.0625 13.890625 -4 L 1.828125 -4 Z M 1.828125 0 "/></g></g></g><g fill="#ffffff" fill-opacity="1"><g transform="translate(110.975546, 328.213653)"><g><path d="M 13.6875 0 L 18.140625 0 L 18.140625 -22.671875 C 18.140625 -29.8125 15.390625 -32.625 9.4375 -32.625 L 0.921875 -32.625 L 0.921875 -28.625 L 8.25 -28.625 C 12.515625 -28.625 13.6875 -26.671875 13.6875 -22.28125 Z M 13.6875 0 "/></g></g></g><g fill="#ffffff" fill-opacity="1"><g transform="translate(132.397921, 328.213653)"><g><path d="M 20.90625 -32.625 L 0.921875 -32.625 L 0.921875 -28.625 L 12.3125 -28.625 L 12.3125 0 L 16.765625 0 L 16.765625 -28.625 L 20.25 -28.625 Z M 20.90625 -32.625 "/></g></g></g><g fill="#ffffff" fill-opacity="1"><g transform="translate(154.147863, 328.213653)"><g><path d="M 18.734375 0 L 23.1875 0 L 23.1875 -22.671875 C 23.1875 -29.8125 20.4375 -32.625 14.484375 -32.625 L 3.078125 -32.625 L 3.078125 -28.625 L 13.296875 -28.625 C 17.5625 -28.625 18.734375 -26.671875 18.734375 -22.28125 Z M 3.609375 0 L 7.921875 0 L 7.921875 -19 L 3.609375 -19 Z M 3.609375 0 "/></g></g></g><g fill="#ffffff" fill-opacity="1"><g transform="translate(180.614667, 328.213653)"><g/></g></g><g fill="#ffffff" fill-opacity="1"><g transform="translate(190.965537, 328.213653)"><g><path d="M 20.046875 -32.625 L 5.765625 -32.625 L 5.828125 -42.328125 L 1.375 -41.796875 L 1.3125 -28.625 L 14.875 -28.625 L 6.546875 0 L 11 0 L 20.375 -32.234375 Z M 20.046875 -32.625 "/></g></g></g><g fill="#ffffff" fill-opacity="1"><g transform="translate(212.191377, 328.213653)"><g><path d="M 10.671875 -32.625 L 1.046875 -32.625 L 1.046875 -28.625 L 6.21875 -28.625 L 6.21875 0 L 10.671875 0 Z M 10.671875 -32.625 "/></g></g></g><g fill="#ffffff" fill-opacity="1"><g transform="translate(226.341937, 328.213653)"><g><path d="M 18.734375 0 L 23.1875 0 L 23.1875 -22.671875 C 23.1875 -29.8125 20.4375 -32.625 14.484375 -32.625 L 3.078125 -32.625 L 3.078125 -28.625 L 13.296875 -28.625 C 17.5625 -28.625 18.734375 -26.671875 18.734375 -22.28125 Z M 3.609375 0 L 7.921875 0 L 7.921875 -19 L 3.609375 -19 Z M 3.609375 0 "/></g></g></g><g fill="#ffffff" fill-opacity="1"><g transform="translate(252.808741, 328.213653)"><g><path d="M 6.421875 -13.5625 L 10.875 -13.5625 L 10.875 -32.625 L 1.046875 -32.625 L 1.046875 -28.625 L 6.421875 -28.625 Z M 6.421875 -13.5625 "/></g></g></g><g fill="#ffffff" fill-opacity="1"><g transform="translate(267.090333, 328.213653)"><g><path d="M 5.828125 -32.625 L 2.484375 -32.625 L 2.484375 -28.625 L 4.59375 -28.625 C 8.1875 -28.625 9.046875 -27.515625 8.96875 -22.796875 L 8.90625 -4 L 1.640625 -4 L 1.640625 0 L 13.296875 0 L 13.4375 -22.859375 C 13.4375 -30.734375 11.921875 -32.625 5.828125 -32.625 Z M 5.828125 -32.625 "/></g></g></g><g fill="#ffffff" fill-opacity="1"><g transform="translate(283.730343, 328.213653)"><g><path d="M 6.09375 0.53125 C 8.125 0.53125 9.703125 -1.109375 9.703125 -3.078125 C 9.703125 -5.109375 8.125 -6.8125 6.09375 -6.8125 C 4.0625 -6.8125 2.484375 -5.109375 2.484375 -3.078125 C 2.484375 -1.109375 4.0625 0.53125 6.09375 0.53125 Z M 6.09375 0.53125 "/></g></g></g><g fill="#ffffff" fill-opacity="1"><g transform="translate(295.858309, 328.213653)"><g><path d="M 7.59375 0 L 12.3125 0 L 12.3125 -38.203125 L 9.765625 -38.203125 L 1.109375 -35.375 L 1.109375 -31.515625 L 7.59375 -32.890625 Z M 7.59375 0 "/></g></g></g><path fill="#569da6" d="M 124.9375 97.957031 L 124.9375 117.582031 C 124.9375 119.421875 125.917969 120.894531 127.390625 121.75 L 127.390625 147.019531 C 127.390625 151.066406 130.703125 154.375 134.75 154.375 C 138.796875 154.375 142.109375 151.066406 142.109375 147.019531 L 142.109375 122.488281 L 147.015625 122.488281 L 147.015625 147.019531 C 147.015625 151.066406 150.328125 154.375 154.375 154.375 C 158.421875 154.375 161.734375 151.066406 161.734375 147.019531 L 161.734375 121.75 C 163.207031 120.894531 164.1875 119.300781 164.1875 117.582031 L 164.1875 97.957031 C 164.1875 97.46875 164.1875 97.097656 164.0625 96.730469 C 164.0625 96.730469 170.074219 101.148438 170.074219 101.148438 C 170.808594 101.761719 171.914062 101.761719 172.773438 101.269531 L 187.488281 92.683594 C 188.714844 91.949219 189.085938 90.476562 188.347656 89.371094 C 187.613281 88.144531 186.140625 87.777344 185.035156 88.511719 L 171.667969 96.242188 C 171.667969 96.242188 157.074219 85.324219 156.949219 85.324219 C 156.949219 85.324219 155.847656 86.429688 155.722656 86.429688 C 154.742188 87.289062 153.636719 88.023438 152.535156 88.636719 C 153.515625 89.003906 154.375 89.371094 155.234375 89.984375 C 157.6875 91.824219 159.28125 94.644531 159.28125 97.957031 L 159.28125 117.582031 L 139.65625 117.582031 L 139.65625 110.222656 C 139.65625 108.875 138.550781 107.769531 137.203125 107.769531 C 135.855469 107.769531 134.75 108.875 134.75 110.222656 L 134.75 117.582031 L 129.84375 117.582031 L 129.84375 97.957031 C 129.84375 93.664062 132.664062 89.863281 136.589844 88.636719 C 134.996094 87.777344 133.402344 86.675781 132.175781 85.324219 C 127.882812 87.902344 124.9375 92.5625 124.9375 97.957031 Z M 151.921875 122.488281 L 156.828125 122.488281 L 156.828125 147.019531 C 156.828125 148.367188 155.722656 149.472656 154.375 149.472656 C 153.023438 149.472656 151.921875 148.367188 151.921875 147.019531 Z M 132.296875 122.488281 L 137.203125 122.488281 L 137.203125 147.019531 C 137.203125 148.367188 136.097656 149.472656 134.75 149.472656 C 133.402344 149.472656 132.296875 148.367188 132.296875 147.019531 Z M 132.296875 122.488281 " fill-opacity="1" fill-rule="nonzero"/><g clip-path="url(#5df8c31650)"><path fill="#569da6" d="M 156.828125 73.425781 C 156.828125 66.683594 151.308594 61.164062 144.5625 61.164062 C 137.816406 61.164062 132.296875 66.683594 132.296875 73.425781 C 132.296875 80.171875 137.816406 85.691406 144.5625 85.691406 C 151.308594 85.691406 156.828125 80.171875 156.828125 73.425781 Z M 156.828125 73.425781 " fill-opacity="1" fill-rule="nonzero"/></g><path fill="#569da6" d="M 150.695312 156.828125 C 143.949219 156.828125 138.429688 162.347656 138.429688 169.09375 C 138.429688 175.839844 143.949219 181.359375 150.695312 181.359375 C 157.441406 181.359375 162.960938 175.839844 162.960938 169.09375 C 162.960938 162.347656 157.441406 156.828125 150.695312 156.828125 Z M 150.695312 156.828125 " fill-opacity="1" fill-rule="nonzero"/><path fill="#569da6" d="M 212.019531 169.09375 C 212.019531 175.839844 217.539062 181.359375 224.285156 181.359375 C 231.03125 181.359375 236.550781 175.839844 236.550781 169.09375 C 236.550781 162.347656 231.03125 156.828125 224.285156 156.828125 C 217.539062 156.828125 212.019531 162.347656 212.019531 169.09375 Z M 212.019531 169.09375 " fill-opacity="1" fill-rule="nonzero"/><g clip-path="url(#da5d226457)"><path fill="#569da6" d="M 258.628906 215.703125 C 258.628906 214.351562 257.523438 213.25 256.175781 213.25 L 248.816406 213.25 L 248.816406 205.890625 C 248.816406 195.097656 239.984375 186.265625 229.191406 186.265625 L 219.378906 186.265625 C 208.585938 186.265625 199.753906 195.097656 199.753906 205.890625 L 199.753906 213.25 L 192.394531 213.25 C 191.046875 213.25 189.941406 214.351562 189.941406 215.703125 C 189.941406 217.050781 191.046875 218.15625 192.394531 218.15625 L 256.175781 218.15625 C 257.523438 218.15625 258.628906 217.050781 258.628906 215.703125 Z M 237.777344 213.25 L 237.777344 208.34375 C 237.777344 206.992188 236.671875 205.890625 235.324219 205.890625 C 233.972656 205.890625 232.871094 206.992188 232.871094 208.34375 L 232.871094 213.25 L 215.699219 213.25 L 215.699219 208.34375 C 215.699219 206.992188 214.59375 205.890625 213.246094 205.890625 C 211.898438 205.890625 210.792969 206.992188 210.792969 208.34375 L 210.792969 213.25 L 204.660156 213.25 L 204.660156 205.890625 C 204.660156 197.796875 211.285156 191.171875 219.378906 191.171875 L 229.191406 191.171875 C 237.285156 191.171875 243.910156 197.796875 243.910156 205.890625 L 243.910156 213.25 Z M 237.777344 213.25 " fill-opacity="1" fill-rule="nonzero"/></g><g clip-path="url(#efefbe4994)"><path fill="#569da6" d="M 118.804688 218.15625 L 182.585938 218.15625 C 183.933594 218.15625 185.035156 217.050781 185.035156 215.703125 C 185.035156 214.351562 183.933594 213.25 182.585938 213.25 L 175.226562 213.25 L 175.226562 205.890625 C 175.226562 195.097656 166.394531 186.265625 155.601562 186.265625 L 145.789062 186.265625 C 134.996094 186.265625 126.164062 195.097656 126.164062 205.890625 L 126.164062 213.25 L 118.804688 213.25 C 117.457031 213.25 116.351562 214.351562 116.351562 215.703125 C 116.351562 217.050781 117.457031 218.15625 118.804688 218.15625 Z M 131.070312 205.890625 C 131.070312 197.796875 137.695312 191.171875 145.789062 191.171875 L 155.601562 191.171875 C 163.695312 191.171875 170.320312 197.796875 170.320312 205.890625 L 170.320312 213.25 L 164.1875 213.25 L 164.1875 208.34375 C 164.1875 206.992188 163.082031 205.890625 161.734375 205.890625 C 160.382812 205.890625 159.28125 206.992188 159.28125 208.34375 L 159.28125 213.25 L 142.109375 213.25 L 142.109375 208.34375 C 142.109375 206.992188 141.003906 205.890625 139.65625 205.890625 C 138.308594 205.890625 137.203125 206.992188 137.203125 208.34375 L 137.203125 213.25 L 131.070312 213.25 Z M 131.070312 205.890625 " fill-opacity="1" fill-rule="nonzero"/></g><path fill="#569da6" d="M 181.359375 70.976562 L 181.359375 84.957031 L 182.585938 84.222656 C 183.6875 83.609375 185.035156 83.238281 186.261719 83.238281 C 188.839844 83.238281 191.292969 84.589844 192.640625 86.917969 C 193.621094 88.636719 193.867188 90.597656 193.378906 92.5625 C 192.886719 94.402344 191.660156 95.996094 189.941406 97.097656 L 184.546875 100.289062 L 181.359375 102.003906 L 181.359375 105.316406 C 181.359375 108.015625 183.566406 110.222656 186.261719 110.222656 L 201.960938 110.222656 L 184.054688 145.914062 C 183.441406 147.140625 183.933594 148.613281 185.160156 149.226562 C 186.386719 149.839844 187.859375 149.347656 188.472656 148.121094 L 207.359375 110.222656 L 223.917969 110.222656 C 223.917969 110.222656 242.804688 148.121094 242.929688 148.121094 C 243.542969 149.347656 245.011719 149.839844 246.238281 149.226562 C 247.464844 148.613281 247.957031 147.140625 247.34375 145.914062 L 229.4375 110.222656 L 245.136719 110.222656 C 247.832031 110.222656 250.042969 108.015625 250.042969 105.316406 L 250.042969 70.976562 C 250.042969 68.277344 247.832031 66.070312 245.136719 66.070312 L 186.261719 66.070312 C 183.566406 66.070312 181.359375 68.277344 181.359375 70.976562 Z M 196.074219 75.878906 L 235.324219 75.878906 C 236.671875 75.878906 237.777344 76.984375 237.777344 78.332031 C 237.777344 79.683594 236.671875 80.785156 235.324219 80.785156 L 196.074219 80.785156 C 194.726562 80.785156 193.621094 79.683594 193.621094 78.332031 C 193.621094 76.984375 194.726562 75.878906 196.074219 75.878906 Z M 196.074219 85.691406 L 235.324219 85.691406 C 236.671875 85.691406 237.777344 86.796875 237.777344 88.144531 C 237.777344 89.496094 236.671875 90.597656 235.324219 90.597656 L 196.074219 90.597656 C 194.726562 90.597656 193.621094 89.496094 193.621094 88.144531 C 193.621094 86.796875 194.726562 85.691406 196.074219 85.691406 Z M 196.074219 95.503906 L 220.605469 95.503906 C 221.953125 95.503906 223.058594 96.609375 223.058594 97.957031 C 223.058594 99.308594 221.953125 100.410156 220.605469 100.410156 L 196.074219 100.410156 C 194.726562 100.410156 193.621094 99.308594 193.621094 97.957031 C 193.621094 96.609375 194.726562 95.503906 196.074219 95.503906 Z M 196.074219 95.503906 " fill-opacity="1" fill-rule="nonzero"/></svg>